<svg width="500" height="500" viewBox="0 0 500 500" fill="none" xmlns="http://www.w3.org/2000/svg">
<rect width="500" height="500" rx="62.5" fill="#6941C6"/>
<circle cx="250" cy="109.375" r="35.9375" stroke="white" stroke-width="21.875"/>
<path d="M296.875 218.75H230.105C215.204 218.75 203.125 231.575 203.125 247.396C203.125 263.216 215.204 276.042 230.105 276.042H269.076C283.976 276.042 296.055 288.867 296.055 304.687C296.055 320.508 283.976 333.333 269.076 333.333H230.105C215.204 333.333 203.125 346.159 203.125 361.979C203.125 377.8 215.204 390.625 230.105 390.625H296.875" stroke="white" stroke-width="21.875"/>
<line x1="253.125" y1="151.563" x2="253.125" y2="442.188" stroke="white" stroke-width="21.875" stroke-linecap="round"/>
<line x1="179.687" y1="96.875" x2="85.9375" y2="96.875" stroke="white" stroke-width="21.875"/>
<line x1="179.687" y1="128.125" x2="132.812" y2="128.125" stroke="white" stroke-width="21.875"/>
<line y1="-10.9375" x2="93.75" y2="-10.9375" transform="matrix(1 -8.74228e-08 -8.74228e-08 -1 320.312 85.9375)" stroke="white" stroke-width="21.875"/>
<line y1="-10.9375" x2="46.875" y2="-10.9375" transform="matrix(1 -8.74228e-08 -8.74228e-08 -1 320.312 117.188)" stroke="white" stroke-width="21.875"/>
</svg>
